<svg id="Layer_1" data-name="Layer 1" xmlns="http://www.w3.org/2000/svg" viewBox="0 0 96 96"><path d="M85.66,86.36H10.34a8.1,8.1,0,0,1-8.09-8.09V26.7A.75.75,0,0,1,3,26H93a.75.75,0,0,1,.75.75V78.27A8.1,8.1,0,0,1,85.66,86.36ZM3.75,27.45V78.27a6.6,6.6,0,0,0,6.59,6.59H85.66a6.6,6.6,0,0,0,6.59-6.59V27.45Z"/><path d="M3,27.45a.76.76,0,0,1-.75-.75V17.21a8.1,8.1,0,0,1,8.09-8.09h8.2a.75.75,0,0,1,0,1.5h-8.2a6.6,6.6,0,0,0-6.59,6.59V26.7A.76.76,0,0,1,3,27.45Z"/><path d="M73.92,20.39a4.28,4.28,0,0,1-4.29-4.29V6.74A4.29,4.29,0,0,1,74.1,2.45,4.51,4.51,0,0,1,78.21,7v8.94a4.44,4.44,0,0,1-4.07,4.47ZM73.92,4a2.8,2.8,0,0,0-2.79,2.79V16.1a2.8,2.8,0,0,0,2.93,2.79,2.94,2.94,0,0,0,2.65-3V7A3,3,0,0,0,74,4Z"/><path d="M93,27.45a.76.76,0,0,1-.75-.75V17.21a6.6,6.6,0,0,0-6.59-6.59h-8.2a.75.75,0,0,1,0-1.5h8.2a8.1,8.1,0,0,1,8.09,8.09V26.7A.76.76,0,0,1,93,27.45Z"/><path d="M70.38,10.62H25.62a.75.75,0,0,1,0-1.5H70.38a.75.75,0,0,1,0,1.5Z"/><path d="M58,22.81a4.27,4.27,0,1,1,4.27-4.26A4.26,4.26,0,0,1,58,22.81Zm0-7a2.77,2.77,0,1,0,2.77,2.77A2.77,2.77,0,0,0,58,15.78Z"/><path d="M38,22.81a4.27,4.27,0,1,1,4.26-4.26A4.27,4.27,0,0,1,38,22.81Zm0-7a2.77,2.77,0,1,0,2.76,2.77A2.77,2.77,0,0,0,38,15.78Z"/><path d="M57,19.3H39a.75.75,0,0,1,0-1.5H57a.75.75,0,0,1,0,1.5Z"/><path d="M48,57h0a.76.76,0,0,1-.75-.75l0-16.63a.75.75,0,0,1,.75-.74h0a.73.73,0,0,1,.74.75l0,16.62A.75.75,0,0,1,48,57Z"/><path d="M48.06,45.92h0a.77.77,0,0,1-.53-.22l-3.86-3.87a.74.74,0,0,1,0-1.06.75.75,0,0,1,1.06,0l3.33,3.34,3.34-3.34a.75.75,0,0,1,1.06,0,.74.74,0,0,1,0,1.06L48.59,45.7A.75.75,0,0,1,48.06,45.92Z"/><path d="M48.06,73.48a.76.76,0,0,1-.75-.75l0-16.53a.76.76,0,0,1,.75-.75h0a.76.76,0,0,1,.75.75l0,16.53a.74.74,0,0,1-.74.75Z"/><path d="M51.93,71.75a.74.74,0,0,1-.53-.22l-3.34-3.34-3.33,3.34a.75.75,0,0,1-1.06,0,.74.74,0,0,1,0-1.06l3.86-3.87a.75.75,0,0,1,1.06,0l3.87,3.87a.74.74,0,0,1,0,1.06A.71.71,0,0,1,51.93,71.75Z"/><path d="M48,57a.69.69,0,0,1-.37-.1l-14.38-8.3a.75.75,0,0,1,.75-1.3l14.38,8.3a.76.76,0,0,1,.27,1A.75.75,0,0,1,48,57Z"/><path d="M33.21,52.87a.75.75,0,0,1-.2-1.48l4.56-1.22-1.22-4.56a.75.75,0,0,1,1.45-.39l1.42,5.29a.76.76,0,0,1-.08.57.74.74,0,0,1-.45.34L33.4,52.84A.63.63,0,0,1,33.21,52.87Z"/><path d="M62.35,65.23a.74.74,0,0,1-.37-.1L47.65,56.85a.75.75,0,1,1,.75-1.3l14.33,8.28a.75.75,0,0,1-.38,1.4Z"/><path d="M58.92,67.71a.75.75,0,0,1-.72-.55l-1.42-5.29a.76.76,0,0,1,.08-.57.74.74,0,0,1,.45-.34l5.29-1.42A.75.75,0,1,1,63,61l-4.56,1.22,1.22,4.56a.75.75,0,0,1-.53.92A.68.68,0,0,1,58.92,67.71Z"/><path d="M33.65,65.3a.73.73,0,0,1-.65-.37.75.75,0,0,1,.27-1l14.37-8.35a.75.75,0,0,1,1,.28.74.74,0,0,1-.27,1L34,65.2A.74.74,0,0,1,33.65,65.3Z"/><path d="M37.08,67.79a.69.69,0,0,1-.2,0,.74.74,0,0,1-.53-.92l1.22-4.56L33,61.06a.75.75,0,0,1,.39-1.45L38.69,61a.76.76,0,0,1,.53.92L37.8,67.23A.74.74,0,0,1,37.08,67.79Z"/><path d="M48,57a.75.75,0,0,1-.65-.37.76.76,0,0,1,.28-1L62,47.33a.75.75,0,0,1,1,.27.76.76,0,0,1-.28,1L48.39,56.85A.69.69,0,0,1,48,57Z"/><path d="M62.79,52.94l-.19,0L57.31,51.5a.76.76,0,0,1-.53-.92L58.2,45.3a.75.75,0,0,1,.92-.53.74.74,0,0,1,.53.91l-1.22,4.57L63,51.47a.75.75,0,0,1-.2,1.47Z"/><path d="M73.46,63.43h0a.76.76,0,0,1-.75-.75l0-6.51a.75.75,0,0,1,.75-.74h0a.74.74,0,0,1,.75.75l0,6.5A.75.75,0,0,1,73.46,63.43Z"/><path d="M73.48,59.12A.79.79,0,0,1,73,58.9l-1.51-1.52a.74.74,0,0,1,0-1.06.75.75,0,0,1,1.06,0l1,1,1-1a.75.75,0,0,1,1.06,0,.74.74,0,0,1,0,1.06L74,58.9A.79.79,0,0,1,73.48,59.12Z"/><path d="M73.48,69.89a.75.75,0,0,1-.75-.75l0-6.46a.76.76,0,0,1,.75-.75h0a.74.74,0,0,1,.75.75l0,6.46A.79.79,0,0,1,73.48,69.89Z"/><path d="M75,69.21a.77.77,0,0,1-.53-.21l-1-1-1,1a.75.75,0,0,1-1.06-1.07L73,66.42a.77.77,0,0,1,1.06,0l1.51,1.51a.75.75,0,0,1,0,1.07A.76.76,0,0,1,75,69.21Z"/><path d="M73.46,63.43a.71.71,0,0,1-.37-.1l-5.62-3.25a.74.74,0,0,1-.28-1,.75.75,0,0,1,1-.28L73.84,62a.74.74,0,0,1,.27,1A.76.76,0,0,1,73.46,63.43Z"/><path d="M67.67,61.83a.74.74,0,0,1-.72-.56.74.74,0,0,1,.53-.91L68.82,60l-.36-1.35a.74.74,0,0,1,.53-.91.75.75,0,0,1,.92.53l.55,2.06a.75.75,0,0,1-.53.92l-2.07.55A.63.63,0,0,1,67.67,61.83Z"/><path d="M79.07,66.66a.75.75,0,0,1-.38-.1l-5.6-3.23a.75.75,0,1,1,.75-1.3l5.6,3.23a.76.76,0,0,1,.28,1A.75.75,0,0,1,79.07,66.66Z"/><path d="M77.73,67.64a.75.75,0,0,1-.73-.56L76.45,65a.75.75,0,0,1,.53-.92L79,63.54a.74.74,0,0,1,.92.53.75.75,0,0,1-.53.92l-1.34.36.36,1.34a.75.75,0,0,1-.53.92A.63.63,0,0,1,77.73,67.64Z"/><path d="M67.84,66.69a.75.75,0,0,1-.65-.37.76.76,0,0,1,.27-1L73.09,62a.74.74,0,0,1,1,.27.75.75,0,0,1-.27,1l-5.62,3.26A.75.75,0,0,1,67.84,66.69Z"/><path d="M69.18,67.67a.63.63,0,0,1-.19,0,.75.75,0,0,1-.53-.92l.36-1.34L67.48,65A.75.75,0,0,1,67,64.1a.74.74,0,0,1,.91-.53l2.07.55a.75.75,0,0,1,.53.92l-.55,2.07A.77.77,0,0,1,69.18,67.67Z"/><path d="M73.46,63.43a.75.75,0,0,1-.37-1.4l5.61-3.22a.75.75,0,1,1,.74,1.3l-5.6,3.22A.75.75,0,0,1,73.46,63.43Z"/><path d="M79.24,61.86l-.2,0L77,61.28a.75.75,0,0,1-.53-.92L77,58.29a.77.77,0,0,1,.92-.53.75.75,0,0,1,.53.92L78.09,60l1.34.35a.75.75,0,0,1-.19,1.48Z"/><path d="M22.08,20.39a4.28,4.28,0,0,1-4.29-4.29V6.74a4.29,4.29,0,0,1,4.47-4.29A4.51,4.51,0,0,1,26.37,7v8.94a4.44,4.44,0,0,1-4.07,4.47ZM22.08,4a2.8,2.8,0,0,0-2.79,2.79V16.1a2.8,2.8,0,0,0,2.93,2.79,2.94,2.94,0,0,0,2.65-3V7A3,3,0,0,0,22.2,4Z"/><path d="M73.48,46.17a2.81,2.81,0,1,1,2.81-2.81A2.81,2.81,0,0,1,73.48,46.17Zm0-4.12a1.31,1.31,0,1,0,1.31,1.31A1.31,1.31,0,0,0,73.48,42.05Z"/><path d="M23.56,47.34a2.81,2.81,0,1,1,2.81-2.81A2.81,2.81,0,0,1,23.56,47.34Zm0-4.12a1.31,1.31,0,1,0,1.31,1.31A1.31,1.31,0,0,0,23.56,43.22Z"/></svg>